<?xml version="1.0" encoding="UTF-8" standalone="no"?>
<!-- Created with Inkscape (http://www.inkscape.org/) -->

<svg
   xmlns:dc="http://purl.org/dc/elements/1.1/"
   xmlns:cc="http://creativecommons.org/ns#"
   xmlns:rdf="http://www.w3.org/1999/02/22-rdf-syntax-ns#"
   xmlns:svg="http://www.w3.org/2000/svg"
   xmlns="http://www.w3.org/2000/svg"
   xmlns:sodipodi="http://sodipodi.sourceforge.net/DTD/sodipodi-0.dtd"
   xmlns:inkscape="http://www.inkscape.org/namespaces/inkscape"
   width="163.35799mm"
   height="129.86382mm"
   viewBox="0 0 578.82751 460.14738"
   id="svg4329"
   version="1.1"
   inkscape:version="0.91 r13725"
   inkscape:export-filename="C:\Users\softdev\Documents\Muon\images\muon.png"
   inkscape:export-xdpi="69.562729"
   inkscape:export-ydpi="69.562729"
   sodipodi:docname="muon.svg">
  <defs
     id="defs4331">
    <filter
       inkscape:collect="always"
       style="color-interpolation-filters:sRGB"
       id="filter4560"
       x="-0.071380051"
       width="1.1427601"
       y="-0.14997091"
       height="1.2999418">
      <feGaussianBlur
         inkscape:collect="always"
         stdDeviation="8.4844337"
         id="feGaussianBlur4562" />
    </filter>
    <filter
       inkscape:collect="always"
       style="color-interpolation-filters:sRGB"
       id="filter4584"
       x="-0.095423437"
       width="1.1908469"
       y="-0.096739622"
       height="1.1934792">
      <feGaussianBlur
         inkscape:collect="always"
         stdDeviation="4.4059329"
         id="feGaussianBlur4586" />
    </filter>
  </defs>
  <sodipodi:namedview
     id="base"
     pagecolor="#ffffff"
     bordercolor="#666666"
     borderopacity="1.0"
     inkscape:pageopacity="0.0"
     inkscape:pageshadow="2"
     inkscape:zoom="1.4"
     inkscape:cx="96.470746"
     inkscape:cy="147.34534"
     inkscape:document-units="px"
     inkscape:current-layer="layer2"
     showgrid="false"
     fit-margin-top="5"
     fit-margin-left="5"
     fit-margin-bottom="5"
     fit-margin-right="5"
     inkscape:window-width="1440"
     inkscape:window-height="837"
     inkscape:window-x="-8"
     inkscape:window-y="-8"
     inkscape:window-maximized="1" />
  <metadata
     id="metadata4334">
    <rdf:RDF>
      <cc:Work
         rdf:about="">
        <dc:format>image/svg+xml</dc:format>
        <dc:type
           rdf:resource="http://purl.org/dc/dcmitype/StillImage" />
        <dc:title />
      </cc:Work>
    </rdf:RDF>
  </metadata>
  <g
     inkscape:label="Layer 1"
     inkscape:groupmode="layer"
     id="layer1"
     transform="translate(-29.163843,-347.77882)">
    <path
       style="opacity:1;fill:#838383;fill-opacity:1;fill-rule:evenodd;stroke:#838383;stroke-width:10.18921566;stroke-linecap:butt;stroke-linejoin:miter;stroke-miterlimit:8;stroke-dasharray:none;stroke-opacity:1"
       d="m 397.43906,683.14481 c 8.87517,-3.60947 16.28575,-17.87387 17.40626,-26.49823 6.68276,-51.43683 16.95024,-126.79507 21.32087,-163.25391 1.61866,-13.50256 -36.16813,-41.12609 -22.01087,-31.14185 9.40043,6.62955 21.37864,-4.50942 23.72008,-4.34134 2.34145,0.16813 26.90675,8.31906 30.44858,5.82496 14.71334,-10.36094 -25.45392,17.13819 -26.92439,29.86356 -4.18829,36.24585 -19.95099,111.03257 -19.49428,162.65073 0.0738,8.34421 7.56393,25.67592 20.32587,35.18685 8.67918,6.46821 -22.71403,-9.06055 -25.05546,-9.22864 -8.9621,-2.63823 -42.06847,10.02003 -19.73666,0.93787 z"
       id="rect5039-39-5"
       inkscape:connector-curvature="0"
       sodipodi:nodetypes="ssssssssscs" />
    <path
       style="opacity:1;fill:#838383;fill-opacity:1;fill-rule:evenodd;stroke:#838383;stroke-width:10.37655354;stroke-linecap:butt;stroke-linejoin:miter;stroke-miterlimit:8;stroke-dasharray:none;stroke-opacity:1"
       d="m 194.09817,570.33206 c -0.41147,9.61751 8.04177,21.65087 15.65077,26.53358 45.38114,29.12108 112.58832,73.56361 146.12997,91.81219 11.93325,6.49238 55.30967,-9.30848 40.95827,-4.79723 -3.83708,1.20615 -9.39576,20.95244 -10.55502,22.98659 -1.15927,2.03415 -22.42328,11.01638 -22.85942,15.04508 -2.66266,24.59503 -0.8131,-20.85751 -12.11851,-27.89727 -32.2014,-20.05142 -96.27735,-66.5598 -144.88266,-89.32968 -7.85718,-3.6808 -32.73,-5.35517 -48.80844,-2.71023 -26.58196,4.37279 26.00795,-12.45461 27.1672,-14.48875 6.30804,-6.89003 10.35321,-41.35392 9.31784,-17.15428 z"
       id="rect5039-39"
       inkscape:connector-curvature="0"
       sodipodi:nodetypes="ssssssssscs" />
    <path
       transform="matrix(0.91258564,-0.40888562,0.38524537,0.92281418,0,0)"
       style="opacity:1;fill:#838383;fill-opacity:1;fill-rule:evenodd;stroke:#838383;stroke-width:11.00182533;stroke-linecap:butt;stroke-linejoin:miter;stroke-miterlimit:8;stroke-dasharray:none;stroke-opacity:1"
       d="m -33.882397,542.75326 c 0,0 14.894324,15.41913 24.52427,15.91501 57.434238,2.95751 142.567847,1.69124 183.288387,0.87903 14.48731,-0.28896 28.99874,-22.57998 28.9955,-22.54335 -0.37391,4.22315 2.02441,24.04605 2.02441,26.51361 0,2.46755 -6.61902,15.32842 -3.19785,22.85047 4.4798,9.84961 -13.13567,-18.78158 -27.33025,-19.3216 -40.43067,-1.53812 -125.66606,-4.02247 -182.7338985,0.51799 -9.2251595,0.73398 -26.1456515,20.94397 -26.1456515,20.94397 -11.330411,15.94147 -2.992464,-22.91851 -2.992464,-25.38606 0,-2.46756 -2.91241,-28.25838 -0.180648,-24.93247 z"
       id="rect5039"
       inkscape:connector-curvature="0"
       sodipodi:nodetypes="cssssssssssc" />
    <flowRoot
       xml:space="preserve"
       id="flowRoot4999"
       style="font-style:normal;font-weight:normal;font-size:180px;line-height:125%;font-family:sans-serif;letter-spacing:0px;word-spacing:0px;fill:#000000;fill-opacity:1;stroke:none;stroke-width:1px;stroke-linecap:butt;stroke-linejoin:miter;stroke-opacity:1"
       transform="matrix(-0.67154758,0.74096143,-0.74096143,-0.67154758,773.82345,445.68117)"><flowRegion
         id="flowRegion5001"><rect
           id="rect5003"
           width="495.71429"
           height="307.14285"
           x="115.71429"
           y="483.79077"
           style="font-size:180px" /></flowRegion><flowPara
         id="flowPara5005" /></flowRoot>    <path
       style="opacity:1;fill:#5fad41;fill-opacity:1;fill-rule:evenodd;stroke:#838383;stroke-width:8;stroke-linecap:butt;stroke-linejoin:miter;stroke-miterlimit:8;stroke-dasharray:none;stroke-opacity:1"
       d="m 196.62088,553.06677 a 51.42857,51.42857 0 0 1 -51.42857,51.42857 51.42857,51.42857 0 0 1 -51.428573,-51.42857 51.42857,51.42857 0 0 1 51.428573,-51.42857 51.42857,51.42857 0 0 1 51.42857,51.42857 z"
       id="path5016"
       inkscape:connector-curvature="0" />
    <path
       inkscape:connector-curvature="0"
       style="opacity:1;fill:#5fad41;fill-opacity:1;fill-rule:evenodd;stroke:#838383;stroke-width:8;stroke-linecap:butt;stroke-linejoin:miter;stroke-miterlimit:8;stroke-dasharray:none;stroke-opacity:1"
       d="m 463.04945,731.63821 a 51.42857,51.42857 0 0 1 -51.42856,51.42857 51.42857,51.42857 0 0 1 -51.42857,-51.42857 51.42857,51.42857 0 0 1 51.42857,-51.42857 51.42857,51.42857 0 0 1 51.42856,51.42857 z"
       id="path5016-7" />
    <path
       inkscape:connector-curvature="0"
       style="opacity:1;fill:#5fad41;fill-opacity:1;fill-rule:evenodd;stroke:#838383;stroke-width:8;stroke-linecap:butt;stroke-linejoin:miter;stroke-miterlimit:8;stroke-dasharray:none;stroke-opacity:1"
       d="m 493.04945,420.92393 a 51.42857,51.42857 0 0 1 -51.42857,51.42857 51.42857,51.42857 0 0 1 -51.42857,-51.42857 51.42857,51.42857 0 0 1 51.42857,-51.42857 51.42857,51.42857 0 0 1 51.42857,51.42857 z"
       id="path5016-6" />
  </g>
  <g
     inkscape:groupmode="layer"
     id="layer2"
     inkscape:label="muon"
     style="display:inline"
     transform="translate(-29.163843,-347.77882)">
    <text
       transform="scale(1.0208429,0.97958265)"
       sodipodi:linespacing="125%"
       id="text4516"
       y="806.67993"
       x="35.362751"
       style="font-style:normal;font-variant:normal;font-weight:500;font-stretch:normal;font-size:188.57954407px;line-height:125%;font-family:Orbitron;-inkscape-font-specification:'Orbitron, Medium';text-align:start;letter-spacing:0px;word-spacing:0px;writing-mode:lr-tb;text-anchor:start;fill:#ffffff;fill-opacity:1;stroke:none;stroke-width:1px;stroke-linecap:butt;stroke-linejoin:miter;stroke-opacity:1;filter:url(#filter4560);"
       xml:space="preserve"><tspan
         style="fill:#ffffff;fill-opacity:1;"
         y="806.67993"
         x="35.362751"
         id="tspan4518"
         sodipodi:role="line">Mu</tspan></text>
    <text
       xml:space="preserve"
       style="font-style:normal;font-variant:normal;font-weight:500;font-stretch:normal;font-size:188.57954407px;line-height:125%;font-family:Orbitron;-inkscape-font-specification:'Orbitron, Medium';text-align:start;letter-spacing:0px;word-spacing:0px;writing-mode:lr-tb;text-anchor:start;fill:#000000;fill-opacity:1;stroke:none;stroke-width:1px;stroke-linecap:butt;stroke-linejoin:miter;stroke-opacity:1"
       x="35.362751"
       y="806.67993"
       id="text5007"
       sodipodi:linespacing="125%"
       transform="scale(1.0208429,0.97958265)"><tspan
         sodipodi:role="line"
         id="tspan5009"
         x="35.362751"
         y="806.67993"
         style="fill:#000000;fill-opacity:1">Mu</tspan></text>
    <text
       transform="scale(1.0343646,0.96677708)"
       sodipodi:linespacing="125%"
       id="text4564"
       y="817.36487"
       x="449.29663"
       style="font-style:normal;font-variant:normal;font-weight:500;font-stretch:normal;font-size:188.4589386px;line-height:125%;font-family:Orbitron;-inkscape-font-specification:'Orbitron, Medium';text-align:start;letter-spacing:0px;word-spacing:0px;writing-mode:lr-tb;text-anchor:start;fill:#ffffff;fill-opacity:1;stroke:none;stroke-width:1px;stroke-linecap:butt;stroke-linejoin:miter;stroke-opacity:1;filter:url(#filter4584)"
       xml:space="preserve"><tspan
         style="fill:#ffffff;fill-opacity:1;"
         y="817.36487"
         x="449.29663"
         id="tspan4566"
         sodipodi:role="line">n</tspan></text>
    <text
       xml:space="preserve"
       style="font-style:normal;font-variant:normal;font-weight:500;font-stretch:normal;font-size:188.4589386px;line-height:125%;font-family:Orbitron;-inkscape-font-specification:'Orbitron, Medium';text-align:start;letter-spacing:0px;word-spacing:0px;writing-mode:lr-tb;text-anchor:start;fill:#000000;fill-opacity:1;stroke:none;stroke-width:1px;stroke-linecap:butt;stroke-linejoin:miter;stroke-opacity:1"
       x="449.29663"
       y="817.36487"
       id="text32"
       sodipodi:linespacing="125%"
       transform="scale(1.0343646,0.96677708)"><tspan
         sodipodi:role="line"
         id="tspan34"
         x="449.29663"
         y="817.36487"
         style="fill:#000000;fill-opacity:1">n</tspan></text>
  </g>
</svg>
